<?xml version="1.0" encoding="UTF-8" standalone="no"?>
<!DOCTYPE svg PUBLIC "-//W3C//DTD SVG 1.1//EN" "http://www.w3.org/Graphics/SVG/1.1/DTD/svg11.dtd">
<svg version="1.1" xmlns="http://www.w3.org/2000/svg" xmlns:xlink="http://www.w3.org/1999/xlink" preserveAspectRatio="xMidYMid meet" viewBox="0 0 640 640" width="640" height="640"><defs><path d="M163.27 209.07L163.41 210.53L163.27 211.99L162.87 213.35L162.23 214.59L161.39 215.66L160.37 216.54L159.2 217.21L157.91 217.64L156.52 217.78L155.14 217.64L153.84 217.21L152.68 216.54L151.66 215.66L150.81 214.59L150.18 213.35L149.78 211.99L149.64 210.53L149.78 209.07L150.18 207.71L150.81 206.48L151.66 205.41L152.68 204.52L153.84 203.85L155.14 203.43L156.52 203.28L157.91 203.43L159.2 203.85L160.37 204.52L161.39 205.41L162.23 206.48L162.87 207.71L162.87 207.71L163.27 209.07ZM205.89 209.07L206.03 210.53L205.89 211.99L205.49 213.35L204.86 214.59L204.02 215.66L203 216.54L201.83 217.21L200.53 217.64L199.15 217.78L197.76 217.64L196.47 217.21L195.3 216.54L194.28 215.66L193.44 214.59L192.8 213.35L192.4 211.99L192.26 210.53L192.4 209.07L192.8 207.71L193.44 206.48L194.28 205.41L195.3 204.52L196.47 203.85L197.76 203.43L199.15 203.28L200.53 203.43L201.83 203.85L203 204.52L204.02 205.41L204.86 206.48L205.49 207.71L205.49 207.71L205.89 209.07ZM245.42 212.62L257.55 198.68L259.74 200.59L246.41 215.9L245.97 215.51L245.24 216.33L236.5 208.57L238.42 206.4L238.42 206.4L245.42 212.62ZM167.04 209.08L187.33 209.08L187.33 211.98L167.04 211.98L167.04 211.98L167.04 209.08ZM210.96 209.08L231.26 209.08L231.26 211.98L210.96 211.98L210.96 211.98L210.96 209.08Z" id="a8uIhZFkJ"></path></defs><g><g><g><use xlink:href="#a8uIhZFkJ" opacity="1" fill="#88929b" fill-opacity="1"></use></g></g></g></svg>